<svg width="500" height="500" viewBox="0 0 500 500" fill="none" xmlns="http://www.w3.org/2000/svg">
<style>
    #outline {
       fill: #2c2e3e;
       stroke: #2c2e3e;
       stroke-width: 2;
    }
    #line {
       stroke: #eff1f5;
       stroke-width: 2;
    }
    @media (prefers-color-scheme: dark) {
        #outline {
           fill: #d5daf0;
           stroke: #d5daf0;
        }
        #line {
           stroke: #1a1b26;
        }
    }
</style>
<path id="outline" d="M228.197 46.1623C228.279 46.1572 228.349 46.1441 228.391 46.1356C228.48 46.1178 228.578 46.0914 228.678 46.0618L230.057 45.7742L229.8 45.5023C230.369 45.2933 231.119 45.0386 232.027 44.7636C234.328 44.067 237.619 43.2472 241.502 42.7074C249.285 41.6256 259.352 41.6812 268.603 46.0004C281.254 51.9077 285.291 54.3655 287.88 56.9554C288.894 57.97 289.685 59.0011 290.703 60.3283C291 60.7156 291.316 61.128 291.663 61.5727C293.183 63.5196 295.208 65.9715 298.607 69.3723C303.802 74.5707 307.673 83.6197 310.385 92.9779C313.077 102.266 314.58 111.686 315.14 117.53L311.776 307.704C311.776 307.707 311.776 307.711 311.776 307.715C311.495 314.754 311.743 324.711 313.445 331.597C313.873 333.326 314.401 334.897 315.054 336.194C315.702 337.48 316.512 338.573 317.544 339.249C318.619 339.953 319.864 340.155 321.211 339.766C322.511 339.39 323.856 338.479 325.262 337.073C330.657 331.674 333.522 328.247 334.899 326.137C335.569 325.111 335.97 324.273 336.053 323.61C336.096 323.268 336.073 322.807 335.768 322.417C335.72 322.356 335.669 322.301 335.616 322.252C335.087 312.415 335.067 290.375 338.981 276.017C342.931 261.525 352.676 254.696 356.877 253.119L357.151 253.017L357.326 252.783C358.889 250.698 361.963 248.175 366.041 247.443C370.065 246.72 375.232 247.71 381.101 252.93C388.56 259.564 393.531 267.026 396.636 273.653C399.75 280.301 400.958 286.047 400.958 289.223C400.958 290.478 401.127 292.461 401.338 294.942C401.419 295.895 401.506 296.923 401.592 298.01C401.907 301.971 402.22 306.834 402.22 312.163C402.22 322.838 400.962 335.297 396.002 346.049C390.978 356.941 386.816 363.59 382.264 368.972C378.233 373.739 373.882 377.532 368.268 382.427C367.522 383.077 366.755 383.746 365.963 384.439C360.757 388.997 350.853 393.017 340.418 396.189C330.033 399.345 319.307 401.609 312.611 402.725L311.776 402.865V403.712V441.962L293.671 456.783C285.425 462.262 261.862 471.337 233.964 463.361C219.889 459.338 209.299 454.852 201.895 450.897C198.192 448.92 195.293 447.079 193.157 445.501C191.217 444.067 189.952 442.883 189.274 442.038C190.11 426.034 190.938 402.231 190.729 382.36C190.623 372.355 190.255 363.315 189.486 356.763C189.103 353.496 188.614 350.792 187.987 348.882C187.676 347.934 187.309 347.112 186.857 346.509C186.406 345.908 185.757 345.383 184.891 345.383C182.909 345.383 179.636 344.885 175.5 343.898C171.385 342.915 166.477 341.463 161.25 339.591C150.784 335.842 139.101 330.43 129.95 323.771C120.844 317.145 112.935 307.166 106.875 296.922C100.816 286.679 96.6566 276.254 95.0017 268.803C93.3395 261.319 92.0797 247.085 91.4486 234.036C91.1337 227.524 90.9766 221.334 91.0028 216.464C91.0159 214.027 91.0748 211.931 91.1815 210.295C91.2908 208.618 91.4451 207.532 91.6089 207.041C92.0532 205.707 92.4861 203.638 92.9812 201.188C93.0436 200.879 93.107 200.564 93.1718 200.242C93.6276 197.976 94.1482 195.389 94.789 192.641C96.2554 186.353 98.3328 179.312 101.625 173.548C106.852 164.394 114.663 161.083 117.748 160.569L117.944 160.536L118.113 160.43C122.365 157.772 134.333 153.927 147.424 160.477C153.848 163.691 157.925 169.75 160.401 176.148C162.874 182.542 163.699 189.152 163.699 193.255V238.714C163.699 259.377 177.45 272.569 184.387 276.618L185.96 277.536L185.89 275.716C185.049 253.838 184.124 218.747 184.082 184.583C184.04 150.394 184.883 117.216 187.563 99.1175C190.223 81.1487 195.539 68.9404 202.584 60.7201C209.591 52.5451 218.38 48.2292 228.197 46.1623Z" stroke-width="2"/>
<path id="line" d="M261.766 43.1411C265.819 47.1937 273.874 56.0089 273.874 62.2352C273.874 69.2635 276.034 76.8449 277.548 83.6578C279.074 90.5229 280.394 97.9498 280.394 105.08C280.394 111.668 278.532 118.703 278.532 125.106C278.532 132.808 279.463 140.14 279.463 147.874C279.463 155.809 281.84 162.528 283.24 170.228C285.275 181.421 285.051 193.175 285.051 204.742C285.051 211.78 285.983 218.279 285.983 225.233C285.983 248.915 285.983 272.598 285.983 296.28C285.983 315.645 283.189 334.921 283.189 354.235C283.189 360.771 282.926 368.834 281.119 374.933C278.219 384.721 279.463 396.204 279.463 406.394C279.463 423.327 281.326 439.699 281.326 456.691" stroke-linecap="square"/>
<path id="line" d="M236.833 44.7134C230.454 45.5108 231.717 57.6719 230.046 61.6395C227.164 68.4842 226.53 74.9381 226.53 82.6132C226.53 85.4981 225.966 90.8621 224.159 93.1205C221.896 95.9487 223.587 99.9463 223.587 103.014C223.587 112.922 222.115 122.63 222.115 132.656C222.115 141.182 222.851 150.089 222.851 158.781C222.851 166.394 225.058 172.875 225.058 180.49C225.058 183.408 225.794 186.557 225.794 189.648C225.794 192.853 225.058 196.108 225.058 199.42C225.058 203.844 224.322 208.279 224.322 212.503C224.322 221.256 223.103 229.278 225.018 237.892C226.677 245.359 225.058 255.17 225.058 262.872C225.058 266.791 225.17 270.729 225.058 274.647C224.911 279.808 222.851 284.524 222.851 289.774C222.851 298.445 219.907 306.5 219.907 315.163C219.907 324.512 222.115 334.381 222.115 343.66C222.115 355.447 220.643 367.33 220.643 378.779C220.643 390.178 216.963 401.109 216.963 412.509C216.963 416.538 215.491 420.071 215.491 424.079C215.491 428.17 216.963 431.876 216.963 435.854C216.963 444.1 219.171 451.547 219.171 459.771" stroke-linecap="square"/>
<path id="line" d="M370.77 247.827C373.387 248.118 378.897 253.64 379.642 256.249C380.545 259.408 381.845 262.524 382.586 265.857C384.13 272.806 388.432 278.743 388.432 286.094C388.432 289.081 389.168 292.669 389.168 296.029C389.168 299.852 388.432 303.364 388.432 307.068C388.432 310.419 387.696 314.166 387.696 317.739C387.696 320.036 387.388 326.053 386.061 327.878C384.197 330.441 382.497 336.902 381.768 340.184C380.971 343.772 376.929 346.741 375.186 349.792C370.575 357.86 364.035 363.398 355.152 366.473C347.599 369.088 340.544 370.099 332.829 371.502C325.987 372.746 317.901 373.61 311.897 376.612" stroke-linecap="square"/>
<path id="line" d="M363.411 249.299C355.96 257.681 359.731 271.288 359.731 281.679C359.731 293.86 365.619 304.405 365.619 316.635C365.619 323.435 365.594 329.852 362.307 335.769C358.839 342.012 353.695 344.062 348.325 348.239C337.52 356.642 323.042 353.518 311.161 357.479" stroke-linecap="square"/>
<path id="line" d="M132.333 157.309C135.273 157.676 136.593 161.601 138.588 163.196C140.982 165.112 140.402 169.787 142.063 171.864C143.415 173.554 143.561 178.218 144.066 180.49C144.777 183.69 145.579 187.512 145.579 190.793C145.579 197.662 145.579 204.53 145.579 211.399C145.579 217.693 144.107 224.418 144.107 230.901C144.107 237.509 142.255 248.258 145.007 254.45C147.664 260.429 150.978 267.159 156.25 271.376C158.911 273.505 161.903 277.724 164.549 280.371C166.492 282.313 168.579 284.284 170.273 286.462C174.097 291.378 182.135 296.397 188.262 296.397" stroke-linecap="square"/>
<path id="line" d="M122.03 160.253C121.665 163.539 116.878 165.541 116.878 169.084C116.878 172.263 115.407 175.577 115.407 179.018C115.407 187.308 113.199 195.644 113.199 203.835C113.199 208.271 111.727 212.451 111.727 216.918C111.727 221.375 112.463 225.451 112.463 229.838C112.463 233.755 113.199 237.251 113.199 241.203C113.199 245.87 114.671 250.208 114.671 254.818C114.671 274.035 127.159 287.554 143.739 296.765C147.695 298.963 150.536 302.607 154.778 304.492C158.563 306.175 162.007 307.509 166.021 308.744C169.927 309.946 174.25 310.739 178.287 311.892C181.342 312.765 184.943 314.795 188.262 314.795" stroke-linecap="square"/>
<path id="line" d="M236.097 78.5656C236.163 79.0874 236.605 79.5805 236.833 80.0375" stroke-width="2" stroke-linecap="square"/>
<path id="line" d="M286.875 123.457V124.929" stroke-width="2" stroke-linecap="square"/>
<path id="line" d="M291.291 275.792C291.291 274.438 292.027 273.465 292.027 272.112" stroke-width="2" stroke-linecap="square"/>
<path id="line" d="M289.083 398.69V399.426" stroke-width="2" stroke-linecap="square"/>
<path id="line" d="M214.756 175.707C214.671 176.385 214.517 176.194 214.02 176.443" stroke-width="2" stroke-linecap="square"/>
<path id="line" d="M210.34 308.908C209.274 309.041 209.604 310.289 209.604 311.116" stroke-width="2" stroke-linecap="square"/>
<path id="line" d="M208.132 421.503V425.183" stroke-width="2" stroke-linecap="square"/>
<path id="line" d="M252.287 353.063V357.478" stroke-width="2" stroke-linecap="square"/>
<path id="line" d="M256.703 202.936V204.408" stroke-width="2" stroke-linecap="square"/>
<path id="line" d="M370.035 275.056C369.952 275.802 369.534 276.558 369.299 277.263" stroke-width="2" stroke-linecap="square"/>
<path id="line" d="M351.636 342.024C350.598 342.947 349.148 343.517 347.957 344.232" stroke-width="2" stroke-linecap="square"/>
<path id="line" d="M390.64 331.721C390.723 330.975 391.141 330.219 391.376 329.514" stroke-width="2" stroke-linecap="square"/>
<path id="line" d="M127.917 191.897V194.841" stroke-width="2" stroke-linecap="square"/>
<path id="line" d="M147.051 233.844V240.468" stroke-width="2" stroke-linecap="square"/>
<path id="line" d="M129.389 292.718C129.389 294.189 130.111 295.148 130.861 296.397" stroke-width="2" stroke-linecap="square"/>
<path id="line" d="M108.048 180.122C109.216 179.976 109.288 178.106 109.519 177.179" stroke-width="2" stroke-linecap="square"/>
<path id="line" d="M328.823 380.292C329.785 380.292 329.906 380.334 330.295 379.556" stroke-width="2" stroke-linecap="square"/>
<path id="line" d="M247.619 45.1619L247.622 463.463" stroke-width="2" stroke-linecap="square"/>
</svg>
